<svg xmlns="http://www.w3.org/2000/svg" version="1.1" xmlns:xlink="http://www.w3.org/1999/xlink" width="1500" height="1500" viewBox="0 0 1500 1500"><rect width="1500" height="1500" x="0" y="0" id="background" stroke="transparent" fill="#ffffff"></rect><svg xml:space="preserve" width="1000" height="1000" data-version="2" data-id="lg_6KXvrKwQfoPfiS3kvU" viewBox="0 0 584 83" x="250" y="250"><rect width="100%" height="100%" fill="transparent"></rect><path fill="#565656" d="M175.015 66.73q-4.55 0-9.11-2.48-1.51-.76-2.07-.76-1.03 0-1.1 1.45l-.07.97h-1.31V54.38h1.24q.62 5.32 3.97 7.84 3.35 2.51 7.93 2.51 4.59 0 6.97-2.48t2.38-5.87q0-5.38-6.21-8.14l-8.21-3.65q-3.72-1.66-5.59-4.52-1.86-2.87-1.86-6.18 0-5.04 3.38-8.66t9.73-3.62q3.73 0 7.66 2.48 1.31.76 1.79.76.9 0 .97-1.45l.07-1.38h1.31v11.94h-1.24q-.55-5.31-3.42-7.83-2.86-2.52-6.97-2.52-4.1 0-6.34 2.24-2.25 2.24-2.25 5.11 0 2.86 1.56 5.14 1.55 2.28 4.58 3.59l8.28 3.65q4.14 1.87 6.25 4.87 2.1 3 2.1 6.45 0 4.9-3.93 8.49-3.93 3.58-10.49 3.58"></path><rect width="28.08" height="45.12" x="-14.04" y="-22.56" fill="none" rx="0" ry="0" transform="translate(175.9 44.67)"></rect><path fill="#565656" d="M224.625 63.7V45.14h-20.15V63.7q0 .96.97.96h3.24v1.25h-14.07v-1.25h3.24q.97 0 .97-.96V24.51q0-.83-.97-.83h-3.24v-1.24h14.07v1.24h-3.24q-.97 0-.97.96v18.57h20.15V24.64q0-.96-.96-.96h-3.25v-1.24h14.08v1.24h-3.24q-.97 0-.97.83V63.7q0 .96.97.96h3.24v1.25h-14.08v-1.25h3.25q.96 0 .96-.96"></path><rect width="39.88" height="43.47" x="-19.94" y="-21.73" fill="none" rx="0" ry="0" transform="translate(215.06 44.68)"></rect><path fill="#565656" d="M276.655 65.91h-14.15v-1.25h4.49l-4.83-13.31h-15.18l-4.83 13.31h4.48v1.25h-10.42v-1.25h2.56q.96 0 1.31-.96l15.18-41.26h2.34l15.18 41.26q.35.96 1.32.96h2.55Zm-22.01-35.33-6.9 18.84h13.73Z"></path><rect width="40.44" height="43.47" x="-20.22" y="-21.73" fill="none" rx="0" ry="0" transform="translate(256.94 44.68)"></rect><path fill="#565656" d="M309.295 64.46q1.03 0 1.69-.86.65-.87.65-2.07 0-1.21-.21-2.25l1.32-.2q.27 1.03.27 2.27 0 2.49-1.48 3.94-1.49 1.44-3.83 1.44-5.87 0-5.87-7.1 0-7.11-1.79-10.46-1.79-3.34-7.31-3.34h-4.49V63.7q0 .96.97.96h4.62v1.25h-15.46v-1.25h3.25q.96 0 .96-.96V24.51q0-.83-.96-.83h-3.25v-1.24h17.18q5.8 0 9.87 3.17 4.07 3.17 4.07 8.49 0 4.28-2.65 7.21-2.66 2.93-7.01 4.03 4.9 1.66 6.21 5.94 1.04 3.52 1.04 8.35t2.21 4.83m-14.08-40.09h-6.97v19.46h6.97q4.14 0 6.45-2.9 2.31-2.9 2.31-6.83 0-3.94-2.31-6.83-2.31-2.9-6.45-2.9"></path><rect width="34.64" height="44.29" x="-17.32" y="-22.14" fill="none" rx="0" ry="0" transform="translate(296.2 45.09)"></rect><path fill="#565656" d="M314.945 65.91v-1.25h3.25q.96 0 .96-.96V24.51q0-.83-.96-.83h-3.25v-1.24h21.88q5.45 0 7.66-.62-.63 2.82-.63 7.86v3.24h-1.58l-1.04-7.03q-.14-1.52-1.93-1.52h-14.49v18.84h13.87q.83 0 .97-.97l.34-4.28h1.24v12.42h-1.24l-.34-4.28q-.14-.96-.97-.96h-13.87v18.83h15.46q1.79 0 1.93-1.51l1.03-8.08h1.59v3.25q0 6.07.62 8.9-2.21-.62-7.66-.62Z"></path><rect width="30.5" height="44.71" x="-15.25" y="-22.36" fill="none" rx="0" ry="0" transform="translate(330.7 44.68)"></rect><path fill="#565656" d="M401.405 65.91v-1.25h3.24q.97 0 .97-.82V28.58l-14.42 37.33h-2.35l-14.42-36.3V63.7q0 .96.97.96h3.24v1.25h-10.76v-1.25h3.24q.97 0 .97-.96V24.51q0-.83-.97-.83h-3.24v-1.24h9.86l14.08 35.67 13.8-35.67h9.87v1.24h-3.25q-.96 0-.96.96v39.2q0 .82.96.82h3.25v1.25Z"></path><rect width="47.61" height="43.47" x="-23.8" y="-21.73" fill="none" rx="0" ry="0" transform="translate(392.18 44.68)"></rect><path fill="#565656" d="m425.795 60.73-2.74-3q-2.74-3-2.74-13.56t5.48-16.56q5.49-6 14.29-6 8.79 0 14.28 6 5.48 6 5.48 16.56 0 10.56-5.48 16.56-5.49 6-14.28 6-8.8 0-14.29-6m4.35-31.74-1.98 2.8q-1.99 2.79-1.99 12.38t3.97 15.18q3.97 5.59 9.9 5.59t9.94-5.59q4-5.59 4-15.18t-4-15.18q-4.01-5.59-9.94-5.59t-9.9 5.59"></path><rect width="39.53" height="45.12" x="-19.77" y="-22.56" fill="none" rx="0" ry="0" transform="translate(440.58 44.67)"></rect><path fill="#565656" d="m497.175 65.91-25.94-38.51v36.3q0 .96.96.96h3.25v1.25h-10.77v-1.25h3.25q.96 0 .96-.96V24.51q0-.83-.96-.83h-3.25v-1.24h10.15l22.21 32.84V24.64q0-.96-.96-.96h-3.24v-1.24h10.76v1.24h-3.24q-.97 0-.97.83v41.4Z"></path><rect width="38.92" height="43.47" x="-19.46" y="-21.73" fill="none" rx="0" ry="0" transform="translate(484.63 44.68)"></rect><path fill="#565656" d="M508.075 65.91v-1.25h3.25q.96 0 .96-.96V24.51q0-.83-.96-.83h-3.25v-1.24h21.88q5.45 0 7.66-.62-.62 2.82-.62 7.86v3.24h-1.59l-1.04-7.03q-.13-1.52-1.93-1.52h-14.49v18.84h13.87q.83 0 .97-.97l.34-4.28h1.24v12.42h-1.24l-.34-4.28q-.14-.96-.97-.96h-13.87v18.83h15.46q1.79 0 1.93-1.51l1.03-8.08h1.59v3.25q0 6.07.62 8.9-2.21-.62-7.66-.62Z"></path><rect width="30.5" height="44.71" x="-15.25" y="-22.36" fill="none" rx="0" ry="0" transform="translate(523.83 44.68)"></rect><path fill="#565656" d="M567.975 22.44h9.38v1.24h-2.55q-.97 0-1.31.96l-10.56 25.47V63.7q0 .96.97.96h4.96v1.25h-17.52v-1.25h4.97q.96 0 .96-.96V50.04l-11.73-25.4q-.48-.96-1.31-.96h-2.55v-1.24h13.18v1.24h-3.45l10.55 22.91 9.46-22.91h-3.45Z"></path><rect width="35.67" height="43.47" x="-17.84" y="-21.73" fill="none" rx="0" ry="0" transform="translate(560.02 44.68)"></rect><path fill="#565656" d="M47.09 66.048 8.58 46.799l-2.934 1.467L47.09 68.98l82.873-41.43-2.933-1.466z"></path><path fill="#565656" d="M47.09 71.913 8.58 52.665 5.645 54.13 47.09 74.846l82.873-41.43-2.933-1.466z"></path><path fill="#565656" d="M47.09 77.779 8.58 58.531l-2.934 1.466L47.09 80.712l82.873-41.43-2.933-1.466z"></path><path fill="#565656" d="M88.523.966 5.65 42.403 47.087 63.12l82.87-41.435zM78.16 37.224c-5.716 2.86-14.993 2.86-20.714 0-5.723-2.862-5.723-7.5 0-10.36 5.719-2.86 14.995-2.86 20.714 0 5.723 2.86 5.723 7.498 0 10.36"></path></svg></svg>