<svg width="571" height="98" viewBox="0 0 571 98" fill="none" xmlns="http://www.w3.org/2000/svg">
<path d="M38.728 90.136C39.24 90.3067 39.752 90.4347 40.264 90.52C40.776 90.6053 41.288 90.6907 41.8 90.776V95.256H2.888V90.776L5.96 90.392C6.81333 90.3067 7.70933 90.0933 8.648 89.752C9.928 89.24 10.824 88.5147 11.336 87.576C11.848 86.7227 12.104 85.4853 12.104 83.864V48.152C12.104 46.7867 11.7627 45.5493 11.08 44.44C10.3973 43.3307 9.58667 42.4773 8.648 41.88C7.88 41.368 6.728 40.856 5.192 40.344C3.82667 39.9173 2.41867 39.6187 0.968 39.448V34.968L31.048 33.432L31.944 34.328V83.096C31.944 84.632 32.2427 85.8693 32.84 86.808C33.4373 87.832 34.3333 88.6 35.528 89.112C36.4667 89.624 37.3627 89.9653 38.216 90.136H38.728ZM20.68 22.68C17.5227 22.68 14.8347 21.6133 12.616 19.48C10.4827 17.2613 9.416 14.5733 9.416 11.416C9.416 8.25866 10.4827 5.61333 12.616 3.48C14.8347 1.26133 17.5227 0.151993 20.68 0.151993C23.8373 0.151993 26.4827 1.26133 28.616 3.48C30.8347 5.61333 31.944 8.25866 31.944 11.416C31.944 14.5733 30.8347 17.2613 28.616 19.48C26.4827 21.6133 23.8373 22.68 20.68 22.68ZM77.634 89.752C78.2313 90.0933 79.1273 90.392 80.322 90.648C80.834 90.8187 81.346 90.9467 81.858 91.032C82.37 91.032 82.882 91.0747 83.394 91.16V95.64H45.25V91.16L48.322 90.776C49.1753 90.6907 50.0713 90.4773 51.01 90.136C52.29 89.624 53.186 88.9413 53.698 88.088C54.21 87.2347 54.466 85.9973 54.466 84.376V15.896C54.466 14.36 54.1673 12.952 53.57 11.672C52.8873 10.2213 51.9913 9.11199 50.882 8.34399C50.1993 7.91733 49.0473 7.49066 47.426 7.064C45.89 6.72266 44.482 6.46666 43.202 6.296V1.81599L73.794 0.279999L74.69 1.30399V83.864C74.69 85.2293 74.9033 86.424 75.33 87.448C75.6713 88.3013 76.482 88.984 77.762 89.496L77.634 89.752ZM118.978 90.136C120.855 90.8187 122.775 91.2027 124.738 91.288V95.768H95.81C92.1407 89.368 88.898 84.0773 86.082 79.896C84.6313 77.6773 83.1807 75.5867 81.73 73.624C80.3647 71.576 79.042 69.6133 77.762 67.736V62.36L78.274 61.336C80.1513 59.544 82.1993 57.624 84.418 55.576C86.3807 53.784 88.0873 52.1627 89.538 50.712C91.074 49.176 92.4393 47.8107 93.634 46.616C95.0847 45.1653 95.8527 44.0987 95.938 43.416C96.0233 42.9893 96.066 42.6907 96.066 42.52C96.1513 42.3493 96.194 42.2213 96.194 42.136C96.194 41.368 95.554 40.728 94.274 40.216C93.1647 39.7893 91.2447 39.3627 88.514 38.936V34.584H119.746V38.808C115.565 40.0027 112.45 41.0693 110.402 42.008C109.293 42.52 108.141 43.1173 106.946 43.8C105.751 44.3973 104.557 45.1653 103.362 46.104C102.679 46.616 101.783 47.4267 100.674 48.536C99.65 49.56 98.626 50.584 97.602 51.608C96.4073 52.8027 95.17 54.0827 93.89 55.448C95.8527 58.3493 97.602 60.952 99.138 63.256C100.759 65.4747 102.423 67.8213 104.13 70.296C107.543 75.3307 111.127 80.5787 114.882 86.04C116.162 88.0027 117.741 89.2827 119.618 89.88L118.978 90.136Z" fill="#E22E57"/>
<path d="M145.698 45.464C144.759 47.768 144.119 50.456 143.778 53.528C143.607 55.064 143.479 56.6853 143.394 58.392C143.309 60.0133 143.266 61.6773 143.266 63.384C143.266 67.9067 143.394 71.6187 143.65 74.52C143.906 77.592 144.589 80.536 145.698 83.352C146.551 85.8267 147.917 87.8747 149.794 89.496C149.965 89.6667 150.306 89.9227 150.818 90.264V91.288C149.367 91.9707 147.831 92.6107 146.21 93.208C144.674 93.72 143.266 94.1893 141.986 94.616C137.805 93.2507 134.093 91.1173 130.85 88.216C127.778 85.4853 125.346 82.1147 123.554 78.104C121.762 74.008 120.866 69.4853 120.866 64.536C120.866 59.672 121.634 55.32 123.17 51.48C124.791 47.4693 127.138 44.056 130.21 41.24C133.282 38.424 137.037 36.248 141.474 34.712C145.911 33.176 150.903 32.408 156.45 32.408H157.218L157.346 33.176C155.981 33.8587 154.701 34.712 153.506 35.736C152.397 36.6747 151.415 37.6133 150.562 38.552C149.709 39.4907 148.983 40.344 148.386 41.112C147.874 41.88 147.575 42.3493 147.49 42.52C146.978 43.3733 146.423 44.5253 145.826 45.976L145.698 45.464ZM190.114 51.608C191.65 55.6187 192.418 59.8853 192.418 64.408C192.418 69.016 191.65 73.368 190.114 77.464C188.578 81.56 186.274 85.016 183.202 87.832C180.045 90.8187 176.205 93.1653 171.682 94.872C167.33 96.4933 162.21 97.304 156.322 97.304C155.725 97.304 155.17 97.2613 154.658 97.176C154.146 97.176 153.634 97.1333 153.122 97.048L152.994 96.152C156.493 94.7867 159.138 93.3787 160.93 91.928C162.807 90.4773 164.002 89.496 164.514 88.984L164.77 88.728C165.794 87.448 166.69 85.912 167.458 84.12C168.311 81.816 168.951 79 169.378 75.672C169.549 73.9653 169.677 72.1733 169.762 70.296C169.933 68.4187 170.018 66.3707 170.018 64.152C170.018 62.7013 169.933 61.1653 169.762 59.544C169.677 57.9227 169.549 56.1733 169.378 54.296C169.037 50.7973 168.439 47.8533 167.586 45.464C166.562 42.904 165.154 40.856 163.362 39.32C162.594 38.6373 161.613 38.0827 160.418 37.656L160.162 36.632C161.357 35.7787 162.509 35.096 163.618 34.584C164.727 33.9867 165.709 33.4747 166.562 33.048C167.501 33.2187 168.397 33.432 169.25 33.688C170.103 33.8587 170.957 34.1147 171.81 34.456C176.162 35.992 179.874 38.168 182.946 40.984C186.018 43.8 188.322 47.1707 189.858 51.096L190.114 51.608ZM227.551 89.368C228.49 89.88 229.94 90.264 231.903 90.52C233.951 90.776 235.402 90.904 236.255 90.904V95.384H195.167V90.904L198.239 90.52C199.092 90.4347 199.988 90.2213 200.927 89.88C202.207 89.368 203.103 88.6853 203.615 87.832C204.127 86.9787 204.383 85.7413 204.383 84.12V48.408C204.383 46.9573 204.042 45.6347 203.359 44.44C202.762 43.3307 201.908 42.4347 200.799 41.752C200.116 41.3253 199.178 40.8987 197.983 40.472C196.788 40.1307 195.508 39.8747 194.143 39.704V35.224L223.455 33.688L224.351 34.584V83.48C224.351 84.9307 224.607 86.0827 225.119 86.936C225.631 87.8747 226.399 88.6 227.423 89.112L227.551 89.368ZM252.767 35.608C254.986 37.5707 256.18 40.0027 256.351 42.904C256.522 45.72 255.626 48.2373 253.663 50.456C251.7 52.6747 249.268 53.8693 246.367 54.04C243.551 54.2107 241.034 53.3147 238.815 51.352C238.73 51.2667 238.687 51.224 238.687 51.224C238.687 51.1387 238.644 51.0533 238.559 50.968C237.108 49.7733 235.658 49.0053 234.207 48.664C232.756 48.3227 231.348 48.2373 229.983 48.408L228.447 47.64V41.24C230.58 39.448 232.543 38.04 234.335 37.016C236.127 35.9067 237.706 35.0533 239.071 34.456C240.607 33.7733 242.058 33.3467 243.423 33.176C244.959 32.8347 246.538 32.8773 248.159 33.304C249.78 33.6453 251.231 34.4133 252.511 35.608H252.767Z" fill="#FFAB00"/>
<path d="M283.323 45.464C282.384 47.768 281.744 50.456 281.403 53.528C281.232 55.064 281.104 56.6853 281.019 58.392C280.934 60.0133 280.891 61.6773 280.891 63.384C280.891 67.9067 281.019 71.6187 281.275 74.52C281.531 77.592 282.214 80.536 283.323 83.352C284.176 85.8267 285.542 87.8747 287.419 89.496C287.59 89.6667 287.931 89.9227 288.443 90.264V91.288C286.992 91.9707 285.456 92.6107 283.835 93.208C282.299 93.72 280.891 94.1893 279.611 94.616C275.43 93.2507 271.718 91.1173 268.475 88.216C265.403 85.4853 262.971 82.1147 261.179 78.104C259.387 74.008 258.491 69.4853 258.491 64.536C258.491 59.672 259.259 55.32 260.795 51.48C262.416 47.4693 264.763 44.056 267.835 41.24C270.907 38.424 274.662 36.248 279.099 34.712C283.536 33.176 288.528 32.408 294.075 32.408H294.843L294.971 33.176C293.606 33.8587 292.326 34.712 291.131 35.736C290.022 36.6747 289.04 37.6133 288.187 38.552C287.334 39.4907 286.608 40.344 286.011 41.112C285.499 41.88 285.2 42.3493 285.115 42.52C284.603 43.3733 284.048 44.5253 283.451 45.976L283.323 45.464ZM327.739 51.608C329.275 55.6187 330.043 59.8853 330.043 64.408C330.043 69.016 329.275 73.368 327.739 77.464C326.203 81.56 323.899 85.016 320.827 87.832C317.67 90.8187 313.83 93.1653 309.307 94.872C304.955 96.4933 299.835 97.304 293.947 97.304C293.35 97.304 292.795 97.2613 292.283 97.176C291.771 97.176 291.259 97.1333 290.747 97.048L290.619 96.152C294.118 94.7867 296.763 93.3787 298.555 91.928C300.432 90.4773 301.627 89.496 302.139 88.984L302.395 88.728C303.419 87.448 304.315 85.912 305.083 84.12C305.936 81.816 306.576 79 307.003 75.672C307.174 73.9653 307.302 72.1733 307.387 70.296C307.558 68.4187 307.643 66.3707 307.643 64.152C307.643 62.7013 307.558 61.1653 307.387 59.544C307.302 57.9227 307.174 56.1733 307.003 54.296C306.662 50.7973 306.064 47.8533 305.211 45.464C304.187 42.904 302.779 40.856 300.987 39.32C300.219 38.6373 299.238 38.0827 298.043 37.656L297.787 36.632C298.982 35.7787 300.134 35.096 301.243 34.584C302.352 33.9867 303.334 33.4747 304.187 33.048C305.126 33.2187 306.022 33.432 306.875 33.688C307.728 33.8587 308.582 34.1147 309.435 34.456C313.787 35.992 317.499 38.168 320.571 40.984C323.643 43.8 325.947 47.1707 327.483 51.096L327.739 51.608ZM365.944 89.368C366.712 89.7947 367.48 90.136 368.248 90.392C368.675 90.5627 369.101 90.6907 369.528 90.776C370.04 90.8613 370.509 90.9467 370.936 91.032V95.512H334.072V91.032L337.144 90.648C337.997 90.5627 338.893 90.3493 339.832 90.008C341.112 89.496 342.008 88.7707 342.52 87.832C343.032 86.9787 343.288 85.7413 343.288 84.12V48.408C343.288 47.2133 342.947 45.9333 342.264 44.568C341.581 43.288 340.728 42.3067 339.704 41.624C339.021 41.1973 338.083 40.7707 336.888 40.344C335.693 40.0027 334.413 39.7467 333.048 39.576V35.096L362.36 33.56L363.256 34.456V83.352C363.256 84.888 363.427 86.04 363.768 86.808C364.195 87.7467 364.835 88.472 365.688 88.984L365.944 89.368ZM412.152 90.776C412.664 90.9467 413.176 91.0747 413.688 91.16C414.285 91.2453 414.925 91.3307 415.608 91.416V95.896H379.128V91.416C379.555 91.3307 379.981 91.288 380.408 91.288C380.92 91.2027 381.432 91.1173 381.944 91.032C382.883 90.9467 383.693 90.6907 384.376 90.264C385.229 89.9227 385.784 89.24 386.04 88.216C386.296 87.192 386.424 85.912 386.424 84.376V55.704C386.424 51.4373 385.656 48.28 384.12 46.232C382.584 44.184 380.408 43.16 377.592 43.16C375.8 43.16 374.221 43.416 372.856 43.928C371.661 44.44 370.467 45.08 369.272 45.848L368.376 45.336V40.216C369.912 38.8507 371.448 37.656 372.984 36.632C374.605 35.5227 376.611 34.6693 379 34.072C381.56 33.3893 384.205 33.048 386.936 33.048C393.08 33.048 397.816 34.84 401.144 38.424C404.472 42.008 406.136 47.1707 406.136 53.912V83.736C406.136 85.3573 406.392 86.5947 406.904 87.448C407.501 88.3867 408.312 89.112 409.336 89.624C410.019 89.88 410.829 90.136 411.768 90.392L412.152 90.776Z" fill="#009CEA"/>
<path d="M451.384 89.752C451.981 90.0933 452.877 90.392 454.072 90.648C454.584 90.8187 455.096 90.9467 455.608 91.032C456.12 91.032 456.632 91.0747 457.144 91.16V95.64H419V91.16L422.072 90.776C422.925 90.6907 423.821 90.4773 424.76 90.136C426.04 89.624 426.936 88.9413 427.448 88.088C427.96 87.2347 428.216 85.9973 428.216 84.376V15.896C428.216 14.36 427.917 12.952 427.32 11.672C426.637 10.2213 425.741 9.11199 424.632 8.34399C423.949 7.91733 422.797 7.49066 421.176 7.064C419.64 6.72266 418.232 6.46666 416.952 6.296V1.81599L447.544 0.279999L448.44 1.30399V83.864C448.44 85.2293 448.653 86.424 449.08 87.448C449.421 88.3013 450.232 88.984 451.512 89.496L451.384 89.752ZM492.728 90.136C494.605 90.8187 496.525 91.2027 498.488 91.288V95.768H469.56C465.891 89.368 462.648 84.0773 459.832 79.896C458.381 77.6773 456.931 75.5867 455.48 73.624C454.115 71.576 452.792 69.6133 451.512 67.736V62.36L452.024 61.336C453.901 59.544 455.949 57.624 458.168 55.576C460.131 53.784 461.837 52.1627 463.288 50.712C464.824 49.176 466.189 47.8107 467.384 46.616C468.835 45.1653 469.603 44.0987 469.688 43.416C469.773 42.9893 469.816 42.6907 469.816 42.52C469.901 42.3493 469.944 42.2213 469.944 42.136C469.944 41.368 469.304 40.728 468.024 40.216C466.915 39.7893 464.995 39.3627 462.264 38.936V34.584H493.496V38.808C489.315 40.0027 486.2 41.0693 484.152 42.008C483.043 42.52 481.891 43.1173 480.696 43.8C479.501 44.3973 478.307 45.1653 477.112 46.104C476.429 46.616 475.533 47.4267 474.424 48.536C473.4 49.56 472.376 50.584 471.352 51.608C470.157 52.8027 468.92 54.0827 467.64 55.448C469.603 58.3493 471.352 60.952 472.888 63.256C474.509 65.4747 476.173 67.8213 477.88 70.296C481.293 75.3307 484.877 80.5787 488.632 86.04C489.912 88.0027 491.491 89.2827 493.368 89.88L492.728 90.136ZM566.301 88.6H570.525V93.08C568.562 93.9333 566.429 94.6587 564.125 95.256C561.565 95.9387 559.005 96.28 556.445 96.28C551.41 96.28 547.698 95.512 545.309 93.976C542.834 92.44 541.17 90.264 540.317 87.448L539.933 53.4V31.896C540.445 31.9813 540.957 32.0667 541.469 32.152C541.981 32.152 542.45 32.1947 542.877 32.28C546.12 32.792 549.106 33.816 551.837 35.352C554.397 36.8027 556.445 38.8507 557.981 41.496C559.517 44.2267 560.285 47.768 560.285 52.12C560.285 54.424 560.242 56.9413 560.157 59.672C560.157 62.4027 560.114 65.3893 560.029 68.632C559.944 71.8747 559.858 74.5627 559.773 76.696C559.773 78.744 559.773 80.28 559.773 81.304C559.773 83.096 560.029 84.504 560.541 85.528C561.053 86.552 561.906 87.32 563.101 87.832C563.784 88.2587 564.893 88.472 566.429 88.472L566.301 88.6ZM528.285 59.288C529.65 58.8613 530.888 58.52 531.997 58.264C533.106 57.9227 534.13 57.5813 535.069 57.24L536.349 57.88V62.232L532.893 63.768C530.589 64.792 528.754 65.8587 527.389 66.968C525.853 68.0773 524.658 69.528 523.805 71.32C522.952 73.0267 522.525 75.1173 522.525 77.592C522.525 80.7493 523.25 83.0533 524.701 84.504C526.152 85.9547 527.944 86.68 530.077 86.68C532.21 86.68 534.002 86.2107 535.453 85.272L536.349 85.784V90.392L535.581 91.16C534.216 92.2693 532.808 93.1227 531.357 93.72C530.418 94.1467 529.48 94.5307 528.541 94.872C527.602 95.2133 526.664 95.512 525.725 95.768C523.933 96.28 521.458 96.536 518.301 96.536C513.522 96.536 509.469 95.128 506.141 92.312C502.813 89.496 501.149 85.784 501.149 81.176C501.149 78.5307 501.533 76.2267 502.301 74.264C503.069 72.3013 504.136 70.6373 505.501 69.272C506.696 68.0773 508.146 67.0107 509.853 66.072C510.706 65.6453 511.56 65.2613 512.413 64.92C513.352 64.4933 514.29 64.0667 515.229 63.64C518.813 62.2747 523.25 60.8667 528.541 59.416L528.285 59.288ZM515.229 57.112C512.328 57.112 509.853 56.088 507.805 54.04C505.757 51.992 504.733 49.5173 504.733 46.616C504.733 44.9093 505.117 43.3307 505.885 41.88C506.653 40.344 507.677 39.1067 508.957 38.168C510.493 37.0587 512.498 36.0347 514.973 35.096C517.021 34.328 519.666 33.6027 522.909 32.92C526.152 32.2373 530.077 31.8533 534.685 31.768L536.093 32.536V34.584C534.13 35.096 532.381 35.864 530.845 36.888C529.48 37.8267 528.242 39.064 527.133 40.6C526.109 42.0507 525.597 43.928 525.597 46.232V46.616C525.597 49.5173 524.573 51.992 522.525 54.04C520.477 56.088 518.002 57.112 515.101 57.112H515.229Z" fill="#74AF00"/>
</svg>
