<svg width="509" height="117" viewBox="0 0 509 117" fill="none" xmlns="http://www.w3.org/2000/svg">
<path d="M35.384 110.248C36.408 110.675 37.9867 111.101 40.12 111.528C42.168 111.955 43.8747 112.211 45.24 112.296V116.904H0.824V112.296C1.336 112.211 1.93333 112.125 2.616 112.04C3.21333 112.04 3.896 111.955 4.664 111.784C6.2 111.528 7.352 111.272 8.12 111.016C9.4 110.504 10.296 109.736 10.808 108.712C11.32 107.688 11.576 106.451 11.576 105V42.152C11.4053 40.7013 11.1067 39.5067 10.68 38.568C10.168 37.544 9.35733 36.648 8.248 35.88C7.56533 35.4533 6.49867 35.0267 5.048 34.6C3.59733 34.1733 2.27467 33.9173 1.08 33.832V29.352L31.032 27.816L31.928 28.584V35.368V41.128V104.232C31.928 105.768 32.2267 107.005 32.824 107.944C33.4213 108.968 34.3173 109.736 35.512 110.248H35.384ZM71.352 35.368C76.216 41.4267 78.648 49.3627 78.648 59.176C78.648 67.7947 75.7467 75.2187 69.944 81.448C64.1413 87.592 56.8453 90.664 48.056 90.664C44.0453 90.664 40.8453 90.28 38.456 89.512C37.944 89.3413 37.432 89.1707 36.92 89C36.408 88.744 35.9387 88.5307 35.512 88.36V83.496L36.536 82.984C37.3893 83.6667 38.2 84.1787 38.968 84.52C40.248 85.032 41.656 85.288 43.192 85.288C47.2027 85.288 50.4453 83.112 52.92 78.76C55.3947 74.3227 56.632 67.9227 56.632 59.56C56.632 56.488 56.376 53.544 55.864 50.728C55.352 47.7413 54.5413 45.224 53.432 43.176C52.2373 40.872 50.7867 39.1227 49.08 37.928C47.288 36.648 45.112 36.008 42.552 36.008C40.1627 36.008 38.2 36.392 36.664 37.16L35.64 36.648V32.68C36.5787 31.9973 37.5173 31.3573 38.456 30.76C39.3947 30.0773 40.376 29.5227 41.4 29.096C44.728 27.56 47.9707 26.792 51.128 26.792C59.576 26.792 66.232 29.7787 71.096 35.752L71.352 35.368ZM151.301 74.024C149.936 76.2427 148.186 78.4187 146.053 80.552C144.005 82.6 141.701 84.392 139.141 85.928C136.496 87.464 133.722 88.616 130.821 89.384C128.005 90.152 124.805 90.536 121.221 90.536C115.248 90.536 110.042 89.6827 105.605 87.976C101.253 86.3547 97.669 84.0507 94.853 81.064C91.9517 78.0773 89.8183 74.6213 88.453 70.696C87.0023 66.6 86.277 62.2907 86.277 57.768C86.277 53.5867 87.045 49.576 88.581 45.736C90.117 41.8107 92.293 38.3973 95.109 35.496C97.925 32.5947 101.424 30.248 105.605 28.456C109.786 26.664 114.522 25.768 119.813 25.768H121.733V26.664C119.429 27.5173 117.509 28.584 115.973 29.864C114.522 31.144 113.328 32.424 112.389 33.704C111.365 35.24 110.597 36.776 110.085 38.312C108.976 41.5547 108.378 45.6507 108.293 50.6V55.72C108.293 64.0827 109.914 70.4827 113.157 74.92C116.314 79.272 121.434 81.448 128.517 81.448C132.357 81.448 135.813 80.424 138.885 78.376C141.786 76.4133 144.389 73.768 146.693 70.44L151.301 74.024ZM126.213 36.776C125.616 35.0693 124.762 33.6613 123.653 32.552L123.525 31.528C124.293 30.76 125.104 30.12 125.957 29.608C126.896 29.096 127.749 28.6693 128.517 28.328C129.285 27.9867 129.925 27.7307 130.437 27.56C131.034 27.3893 131.376 27.304 131.461 27.304C131.888 27.4747 132.272 27.6027 132.613 27.688C133.04 27.7733 133.466 27.9013 133.893 28.072C137.562 29.5227 140.634 31.4427 143.109 33.832C145.413 36.136 147.077 38.9093 148.101 42.152C149.125 45.3947 149.637 48.7227 149.637 52.136V56.104H113.285V50.856L127.877 50.6C127.877 48.1253 127.749 45.608 127.493 43.048C127.237 40.4027 126.81 38.312 126.213 36.776Z" fill="#E22E57"/>
<path d="M187.301 83.368C188.24 83.88 189.69 84.264 191.653 84.52C193.701 84.776 195.152 84.904 196.005 84.904V89.384H154.917V84.904L157.989 84.52C158.842 84.4347 159.738 84.2213 160.677 83.88C161.957 83.368 162.853 82.6853 163.365 81.832C163.877 80.9787 164.133 79.7413 164.133 78.12V42.408C164.133 40.9573 163.792 39.6347 163.109 38.44C162.512 37.3307 161.658 36.4347 160.549 35.752C159.866 35.3253 158.928 34.8987 157.733 34.472C156.538 34.1307 155.258 33.8747 153.893 33.704V29.224L183.205 27.688L184.101 28.584V77.48C184.101 78.9307 184.357 80.0827 184.869 80.936C185.381 81.8747 186.149 82.6 187.173 83.112L187.301 83.368ZM212.517 29.608C214.736 31.5707 215.93 34.0027 216.101 36.904C216.272 39.72 215.376 42.2373 213.413 44.456C211.45 46.6747 209.018 47.8693 206.117 48.04C203.301 48.2107 200.784 47.3147 198.565 45.352C198.48 45.2667 198.437 45.224 198.437 45.224C198.437 45.1387 198.394 45.0533 198.309 44.968C196.858 43.7733 195.408 43.0053 193.957 42.664C192.506 42.3227 191.098 42.2373 189.733 42.408L188.197 41.64V35.24C190.33 33.448 192.293 32.04 194.085 31.016C195.877 29.9067 197.456 29.0533 198.821 28.456C200.357 27.7733 201.808 27.3467 203.173 27.176C204.709 26.8347 206.288 26.8773 207.909 27.304C209.53 27.6453 210.981 28.4133 212.261 29.608H212.517ZM233.518 67.624C236.675 67.624 239.321 68.7333 241.454 70.952C243.673 73.0853 244.782 75.7307 244.782 78.888C244.782 82.0453 243.673 84.7333 241.454 86.952C239.321 89.0853 236.675 90.152 233.518 90.152C230.361 90.152 227.673 89.0853 225.454 86.952C223.321 84.7333 222.254 82.0453 222.254 78.888C222.254 75.7307 223.321 73.0853 225.454 70.952C227.673 68.7333 230.361 67.624 233.518 67.624ZM262.702 48.552C259.801 48.552 257.326 47.528 255.278 45.48C253.23 43.432 252.206 40.9573 252.206 38.056C252.206 35.1547 253.23 32.68 255.278 30.632C257.326 28.584 259.801 27.56 262.702 27.56C265.603 27.56 268.078 28.584 270.126 30.632C272.174 32.68 273.198 35.1547 273.198 38.056C273.198 40.9573 272.174 43.432 270.126 45.48C268.078 47.528 265.603 48.552 262.702 48.552ZM270.51 56.744C273.923 59.9013 275.63 63.9973 275.63 69.032C275.63 75.7733 272.985 81.0213 267.694 84.776C262.489 88.4453 255.619 90.28 247.086 90.28C246.403 90.28 245.763 90.2373 245.166 90.152C244.569 90.152 243.929 90.1093 243.246 90.024V89.384C247.257 88.0187 250.158 86.6107 251.95 85.16C253.827 83.7093 255.107 82.5147 255.79 81.576C255.961 81.4053 256.046 81.2773 256.046 81.192C256.131 81.0213 256.217 80.8933 256.302 80.808C256.387 80.7227 256.43 80.6373 256.43 80.552C256.942 79.4427 257.198 78.0347 257.198 76.328C257.198 74.6213 256.814 73.256 256.046 72.232C255.278 71.208 254.169 70.312 252.718 69.544C251.95 69.1173 251.097 68.776 250.158 68.52C249.305 68.1787 248.409 67.8373 247.47 67.496C246.531 67.24 245.465 66.984 244.27 66.728C243.161 66.3867 241.881 66.0027 240.43 65.576C238.979 65.1493 237.657 64.7653 236.462 64.424C235.267 63.9973 234.158 63.5707 233.134 63.144C231.086 62.2053 228.995 60.8827 226.862 59.176C224.985 57.5547 223.491 55.6347 222.382 53.416C221.273 51.1973 220.718 48.5093 220.718 45.352C220.718 39.6347 223.15 34.984 228.014 31.4C232.878 27.816 239.235 26.024 247.086 26.024C248.281 26.024 249.39 26.0667 250.414 26.152C251.523 26.2373 252.59 26.3653 253.614 26.536V27.304C251.139 27.7307 249.049 28.3707 247.342 29.224C245.721 29.992 244.398 30.76 243.374 31.528C242.179 32.4667 241.198 33.448 240.43 34.472C239.491 35.6667 239.022 37.0747 239.022 38.696C239.022 41.8533 240.345 44.1147 242.99 45.48C245.55 46.76 249.262 48.0827 254.126 49.448C261.379 51.4107 266.755 53.9707 270.254 57.128L270.51 56.744Z" fill="#FFAB00"/>
<path d="M304.198 39.464C303.259 41.768 302.619 44.456 302.278 47.528C302.107 49.064 301.979 50.6853 301.894 52.392C301.809 54.0133 301.766 55.6773 301.766 57.384C301.766 61.9067 301.894 65.6187 302.15 68.52C302.406 71.592 303.089 74.536 304.198 77.352C305.051 79.8267 306.417 81.8747 308.294 83.496C308.465 83.6667 308.806 83.9227 309.318 84.264V85.288C307.867 85.9707 306.331 86.6107 304.71 87.208C303.174 87.72 301.766 88.1893 300.486 88.616C296.305 87.2507 292.593 85.1173 289.35 82.216C286.278 79.4853 283.846 76.1147 282.054 72.104C280.262 68.008 279.366 63.4853 279.366 58.536C279.366 53.672 280.134 49.32 281.67 45.48C283.291 41.4693 285.638 38.056 288.71 35.24C291.782 32.424 295.537 30.248 299.974 28.712C304.411 27.176 309.403 26.408 314.95 26.408H315.718L315.846 27.176C314.481 27.8587 313.201 28.712 312.006 29.736C310.897 30.6747 309.915 31.6133 309.062 32.552C308.209 33.4907 307.483 34.344 306.886 35.112C306.374 35.88 306.075 36.3493 305.99 36.52C305.478 37.3733 304.923 38.5253 304.326 39.976L304.198 39.464ZM348.614 45.608C350.15 49.6187 350.918 53.8853 350.918 58.408C350.918 63.016 350.15 67.368 348.614 71.464C347.078 75.56 344.774 79.016 341.702 81.832C338.545 84.8187 334.705 87.1653 330.182 88.872C325.83 90.4933 320.71 91.304 314.822 91.304C314.225 91.304 313.67 91.2613 313.158 91.176C312.646 91.176 312.134 91.1333 311.622 91.048L311.494 90.152C314.993 88.7867 317.638 87.3787 319.43 85.928C321.307 84.4773 322.502 83.496 323.014 82.984L323.27 82.728C324.294 81.448 325.19 79.912 325.958 78.12C326.811 75.816 327.451 73 327.878 69.672C328.049 67.9653 328.177 66.1733 328.262 64.296C328.433 62.4187 328.518 60.3707 328.518 58.152C328.518 56.7013 328.433 55.1653 328.262 53.544C328.177 51.9227 328.049 50.1733 327.878 48.296C327.537 44.7973 326.939 41.8533 326.086 39.464C325.062 36.904 323.654 34.856 321.862 33.32C321.094 32.6373 320.113 32.0827 318.918 31.656L318.662 30.632C319.857 29.7787 321.009 29.096 322.118 28.584C323.227 27.9867 324.209 27.4747 325.062 27.048C326.001 27.2187 326.897 27.432 327.75 27.688C328.603 27.8587 329.457 28.1147 330.31 28.456C334.662 29.992 338.374 32.168 341.446 34.984C344.518 37.8 346.822 41.1707 348.358 45.096L348.614 45.608ZM386.819 83.368C387.587 83.7947 388.355 84.136 389.123 84.392C389.55 84.5627 389.976 84.6907 390.403 84.776C390.915 84.8613 391.384 84.9467 391.811 85.032V89.512H354.947V85.032L358.019 84.648C358.872 84.5627 359.768 84.3493 360.707 84.008C361.987 83.496 362.883 82.7707 363.395 81.832C363.907 80.9787 364.163 79.7413 364.163 78.12V42.408C364.163 41.2133 363.822 39.9333 363.139 38.568C362.456 37.288 361.603 36.3067 360.579 35.624C359.896 35.1973 358.958 34.7707 357.763 34.344C356.568 34.0027 355.288 33.7467 353.923 33.576V29.096L383.235 27.56L384.131 28.456V77.352C384.131 78.888 384.302 80.04 384.643 80.808C385.07 81.7467 385.71 82.472 386.563 82.984L386.819 83.368ZM433.027 84.776C433.539 84.9467 434.051 85.0747 434.563 85.16C435.16 85.2453 435.8 85.3307 436.483 85.416V89.896H400.003V85.416C400.43 85.3307 400.856 85.288 401.283 85.288C401.795 85.2027 402.307 85.1173 402.819 85.032C403.758 84.9467 404.568 84.6907 405.251 84.264C406.104 83.9227 406.659 83.24 406.915 82.216C407.171 81.192 407.299 79.912 407.299 78.376V49.704C407.299 45.4373 406.531 42.28 404.995 40.232C403.459 38.184 401.283 37.16 398.467 37.16C396.675 37.16 395.096 37.416 393.731 37.928C392.536 38.44 391.342 39.08 390.147 39.848L389.251 39.336V34.216C390.787 32.8507 392.323 31.656 393.859 30.632C395.48 29.5227 397.486 28.6693 399.875 28.072C402.435 27.3893 405.08 27.048 407.811 27.048C413.955 27.048 418.691 28.84 422.019 32.424C425.347 36.008 427.011 41.1707 427.011 47.912V77.736C427.011 79.3573 427.267 80.5947 427.779 81.448C428.376 82.3867 429.187 83.112 430.211 83.624C430.894 83.88 431.704 84.136 432.643 84.392L433.027 84.776Z" fill="#009CEA"/>
<path d="M441.742 21.544C441.23 19.9227 441.102 18.344 441.358 16.808C441.614 15.1867 442.169 13.6933 443.022 12.328C443.619 11.2187 444.43 10.152 445.454 9.128C446.393 8.18933 447.545 7.25066 448.91 6.312C450.361 5.37333 452.153 4.52 454.286 3.752C455.054 4.008 455.865 4.26399 456.718 4.52C457.401 4.776 458.126 5.032 458.894 5.28799C459.662 5.544 460.387 5.8 461.07 6.056L461.71 7.848C461.454 8.36 461.241 9 461.07 9.768C460.899 10.4507 461.027 11.2187 461.454 12.072C461.71 12.4987 461.923 12.968 462.094 13.48C462.35 13.9067 462.563 14.376 462.734 14.888C463.161 16.3387 463.289 17.832 463.118 19.368C462.947 20.8187 462.521 22.184 461.838 23.464C461.241 24.6587 460.345 25.768 459.15 26.792C458.041 27.7307 456.761 28.4133 455.31 28.84C453.859 29.2667 452.366 29.3947 450.83 29.224C449.379 29.0533 448.014 28.6693 446.734 28.072C445.539 27.3893 444.43 26.4933 443.406 25.384C442.467 24.1893 441.785 22.8667 441.358 21.416L441.742 21.544ZM500.11 67.112C501.646 67.5387 502.969 68.264 504.078 69.288C505.187 70.2267 506.083 71.336 506.766 72.616C507.449 73.896 507.875 75.2613 508.046 76.712C508.217 78.1627 508.089 79.656 507.662 81.192C506.894 83.6667 505.486 85.6293 503.438 87.08C501.475 88.4453 499.257 89.128 496.782 89.128H491.79H467.086V83.88L468.494 82.216C470.371 82.0453 472.291 81.6613 474.254 81.064C476.217 80.3813 478.009 79.656 479.63 78.888C481.337 78.12 482.745 77.3947 483.854 76.712C484.963 76.0293 485.561 75.6027 485.646 75.432C485.731 75.2613 485.774 75.1333 485.774 75.048C485.859 74.8773 485.945 74.7067 486.03 74.536C486.457 73 487.139 71.6773 488.078 70.568C489.102 69.4587 490.254 68.5627 491.534 67.88C492.814 67.1973 494.179 66.7707 495.63 66.6C497.166 66.4293 498.702 66.5573 500.238 66.984L500.11 67.112ZM504.974 20.648C504.889 23.8907 504.334 26.664 503.31 28.968C502.371 31.1867 501.049 33.1067 499.342 34.728C497.721 36.3493 495.843 37.8 493.71 39.08C491.577 40.36 489.358 41.64 487.054 42.92C484.835 44.1147 482.531 45.4373 480.142 46.888C477.838 48.3387 475.662 50.088 473.614 52.136C470.542 55.208 468.153 58.8773 466.446 63.144C464.825 67.3253 463.63 71.336 462.862 75.176C461.923 79.6987 461.454 84.3067 461.454 89H440.078C440.078 83.0267 440.59 77.7787 441.614 73.256C442.723 68.7333 444.174 64.7653 445.966 61.352C447.843 57.8533 449.977 54.824 452.366 52.264C454.755 49.6187 457.273 47.272 459.918 45.224C462.563 43.176 465.081 41.2133 467.47 39.336C469.945 37.3733 472.121 35.4107 473.998 33.448C475.875 31.4 477.369 29.224 478.478 26.92C479.587 24.5307 480.142 21.8427 480.142 18.856C480.142 15.8693 479.246 13.352 477.454 11.304C475.747 9.25599 473.87 7.54933 471.822 6.184C469.433 4.648 466.702 3.368 463.63 2.34399V0.679993C465.849 0.338664 468.409 0.167999 471.31 0.167999C474.297 0.0826619 477.326 0.253326 480.398 0.679993C483.47 1.10666 486.457 1.78933 489.358 2.728C492.345 3.66666 494.947 4.98933 497.166 6.696C499.47 8.31733 501.305 10.3227 502.67 12.712C504.121 15.016 504.803 17.7893 504.718 21.032L504.974 20.648Z" fill="#74AF00"/>
</svg>
