<svg width="491" height="116" viewBox="0 0 491 116" fill="none" xmlns="http://www.w3.org/2000/svg">
<path d="M35.384 109.248C36.408 109.675 37.9867 110.101 40.12 110.528C42.168 110.955 43.8747 111.211 45.24 111.296V115.904H0.824V111.296C1.336 111.211 1.93333 111.125 2.616 111.04C3.21333 111.04 3.896 110.955 4.664 110.784C6.2 110.528 7.352 110.272 8.12 110.016C9.4 109.504 10.296 108.736 10.808 107.712C11.32 106.688 11.576 105.451 11.576 104V41.152C11.4053 39.7013 11.1067 38.5067 10.68 37.568C10.168 36.544 9.35733 35.648 8.248 34.88C7.56533 34.4533 6.49867 34.0267 5.048 33.6C3.59733 33.1733 2.27467 32.9173 1.08 32.832V28.352L31.032 26.816L31.928 27.584V34.368V40.128V103.232C31.928 104.768 32.2267 106.005 32.824 106.944C33.4213 107.968 34.3173 108.736 35.512 109.248H35.384ZM71.352 34.368C76.216 40.4267 78.648 48.3627 78.648 58.176C78.648 66.7947 75.7467 74.2187 69.944 80.448C64.1413 86.592 56.8453 89.664 48.056 89.664C44.0453 89.664 40.8453 89.28 38.456 88.512C37.944 88.3413 37.432 88.1707 36.92 88C36.408 87.744 35.9387 87.5307 35.512 87.36V82.496L36.536 81.984C37.3893 82.6667 38.2 83.1787 38.968 83.52C40.248 84.032 41.656 84.288 43.192 84.288C47.2027 84.288 50.4453 82.112 52.92 77.76C55.3947 73.3227 56.632 66.9227 56.632 58.56C56.632 55.488 56.376 52.544 55.864 49.728C55.352 46.7413 54.5413 44.224 53.432 42.176C52.2373 39.872 50.7867 38.1227 49.08 36.928C47.288 35.648 45.112 35.008 42.552 35.008C40.1627 35.008 38.2 35.392 36.664 36.16L35.64 35.648V31.68C36.5787 30.9973 37.5173 30.3573 38.456 29.76C39.3947 29.0773 40.376 28.5227 41.4 28.096C44.728 26.56 47.9707 25.792 51.128 25.792C59.576 25.792 66.232 28.7787 71.096 34.752L71.352 34.368ZM151.301 73.024C149.936 75.2427 148.186 77.4187 146.053 79.552C144.005 81.6 141.701 83.392 139.141 84.928C136.496 86.464 133.722 87.616 130.821 88.384C128.005 89.152 124.805 89.536 121.221 89.536C115.248 89.536 110.042 88.6827 105.605 86.976C101.253 85.3547 97.669 83.0507 94.853 80.064C91.9517 77.0773 89.8183 73.6213 88.453 69.696C87.0023 65.6 86.277 61.2907 86.277 56.768C86.277 52.5867 87.045 48.576 88.581 44.736C90.117 40.8107 92.293 37.3973 95.109 34.496C97.925 31.5947 101.424 29.248 105.605 27.456C109.786 25.664 114.522 24.768 119.813 24.768H121.733V25.664C119.429 26.5173 117.509 27.584 115.973 28.864C114.522 30.144 113.328 31.424 112.389 32.704C111.365 34.24 110.597 35.776 110.085 37.312C108.976 40.5547 108.378 44.6507 108.293 49.6V54.72C108.293 63.0827 109.914 69.4827 113.157 73.92C116.314 78.272 121.434 80.448 128.517 80.448C132.357 80.448 135.813 79.424 138.885 77.376C141.786 75.4133 144.389 72.768 146.693 69.44L151.301 73.024ZM126.213 35.776C125.616 34.0693 124.762 32.6613 123.653 31.552L123.525 30.528C124.293 29.76 125.104 29.12 125.957 28.608C126.896 28.096 127.749 27.6693 128.517 27.328C129.285 26.9867 129.925 26.7307 130.437 26.56C131.034 26.3893 131.376 26.304 131.461 26.304C131.888 26.4747 132.272 26.6027 132.613 26.688C133.04 26.7733 133.466 26.9013 133.893 27.072C137.562 28.5227 140.634 30.4427 143.109 32.832C145.413 35.136 147.077 37.9093 148.101 41.152C149.125 44.3947 149.637 47.7227 149.637 51.136V55.104H113.285V49.856L127.877 49.6C127.877 47.1253 127.749 44.608 127.493 42.048C127.237 39.4027 126.81 37.312 126.213 35.776Z" fill="#E22E57"/>
<path d="M187.301 82.368C188.24 82.88 189.69 83.264 191.653 83.52C193.701 83.776 195.152 83.904 196.005 83.904V88.384H154.917V83.904L157.989 83.52C158.842 83.4347 159.738 83.2213 160.677 82.88C161.957 82.368 162.853 81.6853 163.365 80.832C163.877 79.9787 164.133 78.7413 164.133 77.12V41.408C164.133 39.9573 163.792 38.6347 163.109 37.44C162.512 36.3307 161.658 35.4347 160.549 34.752C159.866 34.3253 158.928 33.8987 157.733 33.472C156.538 33.1307 155.258 32.8747 153.893 32.704V28.224L183.205 26.688L184.101 27.584V76.48C184.101 77.9307 184.357 79.0827 184.869 79.936C185.381 80.8747 186.149 81.6 187.173 82.112L187.301 82.368ZM212.517 28.608C214.736 30.5707 215.93 33.0027 216.101 35.904C216.272 38.72 215.376 41.2373 213.413 43.456C211.45 45.6747 209.018 46.8693 206.117 47.04C203.301 47.2107 200.784 46.3147 198.565 44.352C198.48 44.2667 198.437 44.224 198.437 44.224C198.437 44.1387 198.394 44.0533 198.309 43.968C196.858 42.7733 195.408 42.0053 193.957 41.664C192.506 41.3227 191.098 41.2373 189.733 41.408L188.197 40.64V34.24C190.33 32.448 192.293 31.04 194.085 30.016C195.877 28.9067 197.456 28.0533 198.821 27.456C200.357 26.7733 201.808 26.3467 203.173 26.176C204.709 25.8347 206.288 25.8773 207.909 26.304C209.53 26.6453 210.981 27.4133 212.261 28.608H212.517ZM233.518 66.624C236.675 66.624 239.321 67.7333 241.454 69.952C243.673 72.0853 244.782 74.7307 244.782 77.888C244.782 81.0453 243.673 83.7333 241.454 85.952C239.321 88.0853 236.675 89.152 233.518 89.152C230.361 89.152 227.673 88.0853 225.454 85.952C223.321 83.7333 222.254 81.0453 222.254 77.888C222.254 74.7307 223.321 72.0853 225.454 69.952C227.673 67.7333 230.361 66.624 233.518 66.624ZM262.702 47.552C259.801 47.552 257.326 46.528 255.278 44.48C253.23 42.432 252.206 39.9573 252.206 37.056C252.206 34.1547 253.23 31.68 255.278 29.632C257.326 27.584 259.801 26.56 262.702 26.56C265.603 26.56 268.078 27.584 270.126 29.632C272.174 31.68 273.198 34.1547 273.198 37.056C273.198 39.9573 272.174 42.432 270.126 44.48C268.078 46.528 265.603 47.552 262.702 47.552ZM270.51 55.744C273.923 58.9013 275.63 62.9973 275.63 68.032C275.63 74.7733 272.985 80.0213 267.694 83.776C262.489 87.4453 255.619 89.28 247.086 89.28C246.403 89.28 245.763 89.2373 245.166 89.152C244.569 89.152 243.929 89.1093 243.246 89.024V88.384C247.257 87.0187 250.158 85.6107 251.95 84.16C253.827 82.7093 255.107 81.5147 255.79 80.576C255.961 80.4053 256.046 80.2773 256.046 80.192C256.131 80.0213 256.217 79.8933 256.302 79.808C256.387 79.7227 256.43 79.6373 256.43 79.552C256.942 78.4427 257.198 77.0347 257.198 75.328C257.198 73.6213 256.814 72.256 256.046 71.232C255.278 70.208 254.169 69.312 252.718 68.544C251.95 68.1173 251.097 67.776 250.158 67.52C249.305 67.1787 248.409 66.8373 247.47 66.496C246.531 66.24 245.465 65.984 244.27 65.728C243.161 65.3867 241.881 65.0027 240.43 64.576C238.979 64.1493 237.657 63.7653 236.462 63.424C235.267 62.9973 234.158 62.5707 233.134 62.144C231.086 61.2053 228.995 59.8827 226.862 58.176C224.985 56.5547 223.491 54.6347 222.382 52.416C221.273 50.1973 220.718 47.5093 220.718 44.352C220.718 38.6347 223.15 33.984 228.014 30.4C232.878 26.816 239.235 25.024 247.086 25.024C248.281 25.024 249.39 25.0667 250.414 25.152C251.523 25.2373 252.59 25.3653 253.614 25.536V26.304C251.139 26.7307 249.049 27.3707 247.342 28.224C245.721 28.992 244.398 29.76 243.374 30.528C242.179 31.4667 241.198 32.448 240.43 33.472C239.491 34.6667 239.022 36.0747 239.022 37.696C239.022 40.8533 240.345 43.1147 242.99 44.48C245.55 45.76 249.262 47.0827 254.126 48.448C261.379 50.4107 266.755 52.9707 270.254 56.128L270.51 55.744Z" fill="#FFAB00"/>
<path d="M304.198 38.464C303.259 40.768 302.619 43.456 302.278 46.528C302.107 48.064 301.979 49.6853 301.894 51.392C301.809 53.0133 301.766 54.6773 301.766 56.384C301.766 60.9067 301.894 64.6187 302.15 67.52C302.406 70.592 303.089 73.536 304.198 76.352C305.051 78.8267 306.417 80.8747 308.294 82.496C308.465 82.6667 308.806 82.9227 309.318 83.264V84.288C307.867 84.9707 306.331 85.6107 304.71 86.208C303.174 86.72 301.766 87.1893 300.486 87.616C296.305 86.2507 292.593 84.1173 289.35 81.216C286.278 78.4853 283.846 75.1147 282.054 71.104C280.262 67.008 279.366 62.4853 279.366 57.536C279.366 52.672 280.134 48.32 281.67 44.48C283.291 40.4693 285.638 37.056 288.71 34.24C291.782 31.424 295.537 29.248 299.974 27.712C304.411 26.176 309.403 25.408 314.95 25.408H315.718L315.846 26.176C314.481 26.8587 313.201 27.712 312.006 28.736C310.897 29.6747 309.915 30.6133 309.062 31.552C308.209 32.4907 307.483 33.344 306.886 34.112C306.374 34.88 306.075 35.3493 305.99 35.52C305.478 36.3733 304.923 37.5253 304.326 38.976L304.198 38.464ZM348.614 44.608C350.15 48.6187 350.918 52.8853 350.918 57.408C350.918 62.016 350.15 66.368 348.614 70.464C347.078 74.56 344.774 78.016 341.702 80.832C338.545 83.8187 334.705 86.1653 330.182 87.872C325.83 89.4933 320.71 90.304 314.822 90.304C314.225 90.304 313.67 90.2613 313.158 90.176C312.646 90.176 312.134 90.1333 311.622 90.048L311.494 89.152C314.993 87.7867 317.638 86.3787 319.43 84.928C321.307 83.4773 322.502 82.496 323.014 81.984L323.27 81.728C324.294 80.448 325.19 78.912 325.958 77.12C326.811 74.816 327.451 72 327.878 68.672C328.049 66.9653 328.177 65.1733 328.262 63.296C328.433 61.4187 328.518 59.3707 328.518 57.152C328.518 55.7013 328.433 54.1653 328.262 52.544C328.177 50.9227 328.049 49.1733 327.878 47.296C327.537 43.7973 326.939 40.8533 326.086 38.464C325.062 35.904 323.654 33.856 321.862 32.32C321.094 31.6373 320.113 31.0827 318.918 30.656L318.662 29.632C319.857 28.7787 321.009 28.096 322.118 27.584C323.227 26.9867 324.209 26.4747 325.062 26.048C326.001 26.2187 326.897 26.432 327.75 26.688C328.603 26.8587 329.457 27.1147 330.31 27.456C334.662 28.992 338.374 31.168 341.446 33.984C344.518 36.8 346.822 40.1707 348.358 44.096L348.614 44.608ZM386.819 82.368C387.587 82.7947 388.355 83.136 389.123 83.392C389.55 83.5627 389.976 83.6907 390.403 83.776C390.915 83.8613 391.384 83.9467 391.811 84.032V88.512H354.947V84.032L358.019 83.648C358.872 83.5627 359.768 83.3493 360.707 83.008C361.987 82.496 362.883 81.7707 363.395 80.832C363.907 79.9787 364.163 78.7413 364.163 77.12V41.408C364.163 40.2133 363.822 38.9333 363.139 37.568C362.456 36.288 361.603 35.3067 360.579 34.624C359.896 34.1973 358.958 33.7707 357.763 33.344C356.568 33.0027 355.288 32.7467 353.923 32.576V28.096L383.235 26.56L384.131 27.456V76.352C384.131 77.888 384.302 79.04 384.643 79.808C385.07 80.7467 385.71 81.472 386.563 81.984L386.819 82.368ZM433.027 83.776C433.539 83.9467 434.051 84.0747 434.563 84.16C435.16 84.2453 435.8 84.3307 436.483 84.416V88.896H400.003V84.416C400.43 84.3307 400.856 84.288 401.283 84.288C401.795 84.2027 402.307 84.1173 402.819 84.032C403.758 83.9467 404.568 83.6907 405.251 83.264C406.104 82.9227 406.659 82.24 406.915 81.216C407.171 80.192 407.299 78.912 407.299 77.376V48.704C407.299 44.4373 406.531 41.28 404.995 39.232C403.459 37.184 401.283 36.16 398.467 36.16C396.675 36.16 395.096 36.416 393.731 36.928C392.536 37.44 391.342 38.08 390.147 38.848L389.251 38.336V33.216C390.787 31.8507 392.323 30.656 393.859 29.632C395.48 28.5227 397.486 27.6693 399.875 27.072C402.435 26.3893 405.08 26.048 407.811 26.048C413.955 26.048 418.691 27.84 422.019 31.424C425.347 35.008 427.011 40.1707 427.011 46.912V76.736C427.011 78.3573 427.267 79.5947 427.779 80.448C428.376 81.3867 429.187 82.112 430.211 82.624C430.894 82.88 431.704 83.136 432.643 83.392L433.027 83.776Z" fill="#009CEA"/>
<path d="M485.262 83.008C487.907 83.4347 489.742 83.6907 490.766 83.776V88.384H440.078V83.776C441.187 83.6907 443.15 83.4347 445.966 83.008C448.611 82.6667 450.446 82.2827 451.47 81.856C452.835 81.4293 453.817 80.7467 454.414 79.808C455.097 78.6987 455.438 77.3333 455.438 75.712V16.704H439.822V10.816H443.15C446.734 10.816 449.806 10.432 452.366 9.66399C455.097 8.81066 457.23 7.872 458.766 6.848C460.558 5.73867 462.009 4.544 463.118 3.26399C463.715 2.58133 464.227 1.984 464.654 1.47199C465.081 0.959994 465.465 0.490662 465.806 0.0639954H476.686C476.515 2.87999 476.387 5.99466 476.302 9.408C476.217 11.2 476.174 12.9067 476.174 14.528C476.174 16.064 476.174 17.5573 476.174 19.008V74.944C476.174 76.5653 476.473 77.8453 477.07 78.784C477.667 79.808 478.563 80.576 479.758 81.088C480.867 81.6853 482.659 82.1547 485.134 82.496L485.262 83.008Z" fill="#74AF00"/>
</svg>
