<svg width="143" height="25" viewBox="0 0 143 25" fill="none" xmlns="http://www.w3.org/2000/svg">
<path d="M9.432 22.784C9.56 22.8267 9.688 22.8587 9.816 22.88C9.944 22.9013 10.072 22.9227 10.2 22.944V24.064H0.472V22.944L1.24 22.848C1.45333 22.8267 1.67733 22.7733 1.912 22.688C2.232 22.56 2.456 22.3787 2.584 22.144C2.712 21.9307 2.776 21.6213 2.776 21.216V12.288C2.776 11.9467 2.69067 11.6373 2.52 11.36C2.34933 11.0827 2.14667 10.8693 1.912 10.72C1.72 10.592 1.432 10.464 1.048 10.336C0.706667 10.2293 0.354667 10.1547 -0.00799996 10.112V8.992L7.512 8.608L7.736 8.832V21.024C7.736 21.408 7.81067 21.7173 7.96 21.952C8.10933 22.208 8.33333 22.4 8.632 22.528C8.86667 22.656 9.09067 22.7413 9.304 22.784H9.432ZM4.92 5.92C4.13067 5.92 3.45867 5.65333 2.904 5.12C2.37067 4.56533 2.104 3.89333 2.104 3.104C2.104 2.31466 2.37067 1.65333 2.904 1.12C3.45867 0.565332 4.13067 0.287998 4.92 0.287998C5.70933 0.287998 6.37067 0.565332 6.904 1.12C7.45867 1.65333 7.736 2.31466 7.736 3.104C7.736 3.89333 7.45867 4.56533 6.904 5.12C6.37067 5.65333 5.70933 5.92 4.92 5.92ZM19.1585 22.688C19.3078 22.7733 19.5318 22.848 19.8305 22.912C19.9585 22.9547 20.0865 22.9867 20.2145 23.008C20.3425 23.008 20.4705 23.0187 20.5985 23.04V24.16H11.0625V23.04L11.8305 22.944C12.0438 22.9227 12.2678 22.8693 12.5025 22.784C12.8225 22.656 13.0465 22.4853 13.1745 22.272C13.3025 22.0587 13.3665 21.7493 13.3665 21.344V4.224C13.3665 3.84 13.2918 3.488 13.1425 3.168C12.9718 2.80533 12.7478 2.528 12.4705 2.336C12.2998 2.22933 12.0118 2.12267 11.6065 2.016C11.2225 1.93067 10.8705 1.86667 10.5505 1.824V0.703999L18.1985 0.32L18.4225 0.575998V21.216C18.4225 21.5573 18.4758 21.856 18.5825 22.112C18.6678 22.3253 18.8705 22.496 19.1905 22.624L19.1585 22.688ZM29.4945 22.784C29.9638 22.9547 30.4438 23.0507 30.9345 23.072V24.192H23.7025C22.7852 22.592 21.9745 21.2693 21.2705 20.224C20.9078 19.6693 20.5452 19.1467 20.1825 18.656C19.8412 18.144 19.5105 17.6533 19.1905 17.184V15.84L19.3185 15.584C19.7878 15.136 20.2998 14.656 20.8545 14.144C21.3452 13.696 21.7718 13.2907 22.1345 12.928C22.5185 12.544 22.8598 12.2027 23.1585 11.904C23.5212 11.5413 23.7132 11.2747 23.7345 11.104C23.7558 10.9973 23.7665 10.9227 23.7665 10.88C23.7878 10.8373 23.7985 10.8053 23.7985 10.784C23.7985 10.592 23.6385 10.432 23.3185 10.304C23.0412 10.1973 22.5612 10.0907 21.8785 9.984V8.896H29.6865V9.952C28.6412 10.2507 27.8625 10.5173 27.3505 10.752C27.0732 10.88 26.7852 11.0293 26.4865 11.2C26.1878 11.3493 25.8892 11.5413 25.5905 11.776C25.4198 11.904 25.1958 12.1067 24.9185 12.384C24.6625 12.64 24.4065 12.896 24.1505 13.152C23.8518 13.4507 23.5425 13.7707 23.2225 14.112C23.7132 14.8373 24.1505 15.488 24.5345 16.064C24.9398 16.6187 25.3558 17.2053 25.7825 17.824C26.6358 19.0827 27.5318 20.3947 28.4705 21.76C28.7905 22.2507 29.1852 22.5707 29.6545 22.72L29.4945 22.784Z" fill="#E22E57"/>
<path d="M36.1745 11.616C35.9398 12.192 35.7798 12.864 35.6945 13.632C35.6518 14.016 35.6198 14.4213 35.5985 14.848C35.5772 15.2533 35.5665 15.6693 35.5665 16.096C35.5665 17.2267 35.5985 18.1547 35.6625 18.88C35.7265 19.648 35.8972 20.384 36.1745 21.088C36.3878 21.7067 36.7292 22.2187 37.1985 22.624C37.2412 22.6667 37.3265 22.7307 37.4545 22.816V23.072C37.0918 23.2427 36.7078 23.4027 36.3025 23.552C35.9185 23.68 35.5665 23.7973 35.2465 23.904C34.2012 23.5627 33.2732 23.0293 32.4625 22.304C31.6945 21.6213 31.0865 20.7787 30.6385 19.776C30.1905 18.752 29.9665 17.6213 29.9665 16.384C29.9665 15.168 30.1585 14.08 30.5425 13.12C30.9478 12.1173 31.5345 11.264 32.3025 10.56C33.0705 9.856 34.0092 9.312 35.1185 8.928C36.2278 8.544 37.4758 8.352 38.8625 8.352H39.0545L39.0865 8.544C38.7452 8.71467 38.4252 8.928 38.1265 9.184C37.8492 9.41867 37.6038 9.65333 37.3905 9.888C37.1772 10.1227 36.9958 10.336 36.8465 10.528C36.7185 10.72 36.6438 10.8373 36.6225 10.88C36.4945 11.0933 36.3558 11.3813 36.2065 11.744L36.1745 11.616ZM47.2785 13.152C47.6625 14.1547 47.8545 15.2213 47.8545 16.352C47.8545 17.504 47.6625 18.592 47.2785 19.616C46.8945 20.64 46.3185 21.504 45.5505 22.208C44.7612 22.9547 43.8012 23.5413 42.6705 23.968C41.5825 24.3733 40.3025 24.576 38.8305 24.576C38.6812 24.576 38.5425 24.5653 38.4145 24.544C38.2865 24.544 38.1585 24.5333 38.0305 24.512L37.9985 24.288C38.8732 23.9467 39.5345 23.5947 39.9825 23.232C40.4518 22.8693 40.7505 22.624 40.8785 22.496L40.9425 22.432C41.1985 22.112 41.4225 21.728 41.6145 21.28C41.8278 20.704 41.9878 20 42.0945 19.168C42.1372 18.7413 42.1692 18.2933 42.1905 17.824C42.2332 17.3547 42.2545 16.8427 42.2545 16.288C42.2545 15.9253 42.2332 15.5413 42.1905 15.136C42.1692 14.7307 42.1372 14.2933 42.0945 13.824C42.0092 12.9493 41.8598 12.2133 41.6465 11.616C41.3905 10.976 41.0385 10.464 40.5905 10.08C40.3985 9.90933 40.1532 9.77067 39.8545 9.664L39.7905 9.408C40.0892 9.19467 40.3772 9.024 40.6545 8.896C40.9318 8.74667 41.1772 8.61867 41.3905 8.512C41.6252 8.55467 41.8492 8.608 42.0625 8.672C42.2758 8.71467 42.4892 8.77867 42.7025 8.864C43.7905 9.248 44.7185 9.792 45.4865 10.496C46.2545 11.2 46.8305 12.0427 47.2145 13.024L47.2785 13.152ZM56.6378 22.592C56.8724 22.72 57.2351 22.816 57.7258 22.88C58.2378 22.944 58.6004 22.976 58.8138 22.976V24.096H48.5418V22.976L49.3098 22.88C49.5231 22.8587 49.7471 22.8053 49.9818 22.72C50.3018 22.592 50.5258 22.4213 50.6538 22.208C50.7818 21.9947 50.8458 21.6853 50.8458 21.28V12.352C50.8458 11.9893 50.7604 11.6587 50.5898 11.36C50.4404 11.0827 50.2271 10.8587 49.9498 10.688C49.7791 10.5813 49.5444 10.4747 49.2458 10.368C48.9471 10.2827 48.6271 10.2187 48.2858 10.176V9.056L55.6138 8.672L55.8378 8.896V21.12C55.8378 21.4827 55.9018 21.7707 56.0298 21.984C56.1578 22.2187 56.3498 22.4 56.6058 22.528L56.6378 22.592ZM62.9418 9.152C63.4964 9.64267 63.7951 10.2507 63.8378 10.976C63.8804 11.68 63.6564 12.3093 63.1658 12.864C62.6751 13.4187 62.0671 13.7173 61.3418 13.76C60.6378 13.8027 60.0084 13.5787 59.4538 13.088C59.4324 13.0667 59.4218 13.056 59.4218 13.056C59.4218 13.0347 59.4111 13.0133 59.3898 12.992C59.0271 12.6933 58.6644 12.5013 58.3018 12.416C57.9391 12.3307 57.5871 12.3093 57.2458 12.352L56.8618 12.16V10.56C57.3951 10.112 57.8858 9.76 58.3338 9.504C58.7818 9.22667 59.1764 9.01333 59.5178 8.864C59.9018 8.69333 60.2644 8.58667 60.6058 8.544C60.9898 8.45867 61.3844 8.46933 61.7898 8.576C62.1951 8.66133 62.5578 8.85333 62.8778 9.152H62.9418Z" fill="#FFAB00"/>
<path d="M70.5808 11.616C70.3461 12.192 70.1861 12.864 70.1008 13.632C70.0581 14.016 70.0261 14.4213 70.0048 14.848C69.9834 15.2533 69.9728 15.6693 69.9728 16.096C69.9728 17.2267 70.0048 18.1547 70.0688 18.88C70.1328 19.648 70.3034 20.384 70.5808 21.088C70.7941 21.7067 71.1354 22.2187 71.6048 22.624C71.6474 22.6667 71.7328 22.7307 71.8608 22.816V23.072C71.4981 23.2427 71.1141 23.4027 70.7088 23.552C70.3248 23.68 69.9728 23.7973 69.6528 23.904C68.6074 23.5627 67.6794 23.0293 66.8688 22.304C66.1008 21.6213 65.4928 20.7787 65.0448 19.776C64.5968 18.752 64.3727 17.6213 64.3727 16.384C64.3727 15.168 64.5648 14.08 64.9488 13.12C65.3541 12.1173 65.9408 11.264 66.7088 10.56C67.4768 9.856 68.4154 9.312 69.5248 8.928C70.6341 8.544 71.8821 8.352 73.2688 8.352H73.4608L73.4928 8.544C73.1514 8.71467 72.8314 8.928 72.5328 9.184C72.2554 9.41867 72.0101 9.65333 71.7968 9.888C71.5834 10.1227 71.4021 10.336 71.2528 10.528C71.1248 10.72 71.0501 10.8373 71.0288 10.88C70.9008 11.0933 70.7621 11.3813 70.6128 11.744L70.5808 11.616ZM81.6848 13.152C82.0688 14.1547 82.2608 15.2213 82.2608 16.352C82.2608 17.504 82.0688 18.592 81.6848 19.616C81.3008 20.64 80.7248 21.504 79.9568 22.208C79.1674 22.9547 78.2074 23.5413 77.0768 23.968C75.9888 24.3733 74.7088 24.576 73.2368 24.576C73.0874 24.576 72.9488 24.5653 72.8208 24.544C72.6928 24.544 72.5648 24.5333 72.4368 24.512L72.4048 24.288C73.2794 23.9467 73.9408 23.5947 74.3888 23.232C74.8581 22.8693 75.1568 22.624 75.2848 22.496L75.3488 22.432C75.6048 22.112 75.8288 21.728 76.0208 21.28C76.2341 20.704 76.3941 20 76.5008 19.168C76.5434 18.7413 76.5754 18.2933 76.5968 17.824C76.6394 17.3547 76.6608 16.8427 76.6608 16.288C76.6608 15.9253 76.6394 15.5413 76.5968 15.136C76.5754 14.7307 76.5434 14.2933 76.5008 13.824C76.4154 12.9493 76.2661 12.2133 76.0528 11.616C75.7968 10.976 75.4448 10.464 74.9968 10.08C74.8048 9.90933 74.5594 9.77067 74.2608 9.664L74.1968 9.408C74.4954 9.19467 74.7834 9.024 75.0608 8.896C75.3381 8.74667 75.5834 8.61867 75.7968 8.512C76.0314 8.55467 76.2554 8.608 76.4688 8.672C76.6821 8.71467 76.8954 8.77867 77.1088 8.864C78.1968 9.248 79.1248 9.792 79.8928 10.496C80.6608 11.2 81.2368 12.0427 81.6208 13.024L81.6848 13.152ZM91.236 22.592C91.428 22.6987 91.62 22.784 91.812 22.848C91.9187 22.8907 92.0253 22.9227 92.132 22.944C92.26 22.9653 92.3773 22.9867 92.484 23.008V24.128H83.268V23.008L84.036 22.912C84.2493 22.8907 84.4733 22.8373 84.708 22.752C85.028 22.624 85.252 22.4427 85.38 22.208C85.508 21.9947 85.572 21.6853 85.572 21.28V12.352C85.572 12.0533 85.4867 11.7333 85.316 11.392C85.1453 11.072 84.932 10.8267 84.676 10.656C84.5053 10.5493 84.2707 10.4427 83.972 10.336C83.6733 10.2507 83.3533 10.1867 83.012 10.144V9.024L90.34 8.64L90.564 8.864V21.088C90.564 21.472 90.6067 21.76 90.692 21.952C90.7987 22.1867 90.9587 22.368 91.172 22.496L91.236 22.592ZM102.788 22.944C102.916 22.9867 103.044 23.0187 103.172 23.04C103.321 23.0613 103.481 23.0827 103.652 23.104V24.224H94.532V23.104C94.6387 23.0827 94.7453 23.072 94.852 23.072C94.98 23.0507 95.108 23.0293 95.236 23.008C95.4707 22.9867 95.6733 22.9227 95.844 22.816C96.0573 22.7307 96.196 22.56 96.26 22.304C96.324 22.048 96.356 21.728 96.356 21.344V14.176C96.356 13.1093 96.164 12.32 95.78 11.808C95.396 11.296 94.852 11.04 94.148 11.04C93.7 11.04 93.3053 11.104 92.964 11.232C92.6653 11.36 92.3667 11.52 92.068 11.712L91.844 11.584V10.304C92.228 9.96267 92.612 9.664 92.996 9.408C93.4013 9.13067 93.9027 8.91733 94.5 8.768C95.14 8.59733 95.8013 8.512 96.484 8.512C98.02 8.512 99.204 8.96 100.036 9.856C100.868 10.752 101.284 12.0427 101.284 13.728V21.184C101.284 21.5893 101.348 21.8987 101.476 22.112C101.625 22.3467 101.828 22.528 102.084 22.656C102.255 22.72 102.457 22.784 102.692 22.848L102.788 22.944Z" fill="#009CEA"/>
<path d="M112.596 22.688C112.745 22.7733 112.969 22.848 113.268 22.912C113.396 22.9547 113.524 22.9867 113.652 23.008C113.78 23.008 113.908 23.0187 114.036 23.04V24.16H104.5V23.04L105.268 22.944C105.481 22.9227 105.705 22.8693 105.94 22.784C106.26 22.656 106.484 22.4853 106.612 22.272C106.74 22.0587 106.804 21.7493 106.804 21.344V4.224C106.804 3.84 106.729 3.488 106.58 3.168C106.409 2.80533 106.185 2.528 105.908 2.336C105.737 2.22933 105.449 2.12267 105.044 2.016C104.66 1.93067 104.308 1.86667 103.988 1.824V0.703999L111.636 0.32L111.86 0.575998V21.216C111.86 21.5573 111.913 21.856 112.02 22.112C112.105 22.3253 112.308 22.496 112.628 22.624L112.596 22.688ZM122.932 22.784C123.401 22.9547 123.881 23.0507 124.372 23.072V24.192H117.14C116.223 22.592 115.412 21.2693 114.708 20.224C114.345 19.6693 113.983 19.1467 113.62 18.656C113.279 18.144 112.948 17.6533 112.628 17.184V15.84L112.756 15.584C113.225 15.136 113.737 14.656 114.292 14.144C114.783 13.696 115.209 13.2907 115.572 12.928C115.956 12.544 116.297 12.2027 116.596 11.904C116.959 11.5413 117.151 11.2747 117.172 11.104C117.193 10.9973 117.204 10.9227 117.204 10.88C117.225 10.8373 117.236 10.8053 117.236 10.784C117.236 10.592 117.076 10.432 116.756 10.304C116.479 10.1973 115.999 10.0907 115.316 9.984V8.896H123.124V9.952C122.079 10.2507 121.3 10.5173 120.788 10.752C120.511 10.88 120.223 11.0293 119.924 11.2C119.625 11.3493 119.327 11.5413 119.028 11.776C118.857 11.904 118.633 12.1067 118.356 12.384C118.1 12.64 117.844 12.896 117.588 13.152C117.289 13.4507 116.98 13.7707 116.66 14.112C117.151 14.8373 117.588 15.488 117.972 16.064C118.377 16.6187 118.793 17.2053 119.22 17.824C120.073 19.0827 120.969 20.3947 121.908 21.76C122.228 22.2507 122.623 22.5707 123.092 22.72L122.932 22.784ZM141.325 22.4H142.381V23.52C141.891 23.7333 141.357 23.9147 140.781 24.064C140.141 24.2347 139.501 24.32 138.861 24.32C137.603 24.32 136.675 24.128 136.077 23.744C135.459 23.36 135.043 22.816 134.829 22.112L134.733 13.6V8.224C134.861 8.24533 134.989 8.26667 135.117 8.288C135.245 8.288 135.363 8.29867 135.469 8.32C136.28 8.448 137.027 8.704 137.709 9.088C138.349 9.45067 138.861 9.96267 139.245 10.624C139.629 11.3067 139.821 12.192 139.821 13.28C139.821 13.856 139.811 14.4853 139.789 15.168C139.789 15.8507 139.779 16.5973 139.757 17.408C139.736 18.2187 139.715 18.8907 139.693 19.424C139.693 19.936 139.693 20.32 139.693 20.576C139.693 21.024 139.757 21.376 139.885 21.632C140.013 21.888 140.227 22.08 140.525 22.208C140.696 22.3147 140.973 22.368 141.357 22.368L141.325 22.4ZM131.821 15.072C132.163 14.9653 132.472 14.88 132.749 14.816C133.027 14.7307 133.283 14.6453 133.517 14.56L133.837 14.72V15.808L132.973 16.192C132.397 16.448 131.939 16.7147 131.597 16.992C131.213 17.2693 130.915 17.632 130.701 18.08C130.488 18.5067 130.381 19.0293 130.381 19.648C130.381 20.4373 130.563 21.0133 130.925 21.376C131.288 21.7387 131.736 21.92 132.269 21.92C132.803 21.92 133.251 21.8027 133.613 21.568L133.837 21.696V22.848L133.645 23.04C133.304 23.3173 132.952 23.5307 132.589 23.68C132.355 23.7867 132.12 23.8827 131.885 23.968C131.651 24.0533 131.416 24.128 131.181 24.192C130.733 24.32 130.115 24.384 129.325 24.384C128.131 24.384 127.117 24.032 126.285 23.328C125.453 22.624 125.037 21.696 125.037 20.544C125.037 19.8827 125.133 19.3067 125.325 18.816C125.517 18.3253 125.784 17.9093 126.125 17.568C126.424 17.2693 126.787 17.0027 127.213 16.768C127.427 16.6613 127.64 16.5653 127.853 16.48C128.088 16.3733 128.323 16.2667 128.557 16.16C129.453 15.8187 130.563 15.4667 131.885 15.104L131.821 15.072ZM128.557 14.528C127.832 14.528 127.213 14.272 126.701 13.76C126.189 13.248 125.933 12.6293 125.933 11.904C125.933 11.4773 126.029 11.0827 126.221 10.72C126.413 10.336 126.669 10.0267 126.989 9.792C127.373 9.51467 127.875 9.25867 128.493 9.024C129.005 8.832 129.667 8.65067 130.477 8.48C131.288 8.30933 132.269 8.21333 133.421 8.192L133.773 8.384V8.896C133.283 9.024 132.845 9.216 132.461 9.472C132.12 9.70667 131.811 10.016 131.533 10.4C131.277 10.7627 131.149 11.232 131.149 11.808V11.904C131.149 12.6293 130.893 13.248 130.381 13.76C129.869 14.272 129.251 14.528 128.525 14.528H128.557Z" fill="#74AF00"/>
</svg>
