<?xml version="1.0" encoding="utf-8"?>
<!-- Generator: Adobe Illustrator 28.2.0, SVG Export Plug-In . SVG Version: 6.00 Build 0)  -->
<svg version="1.1" id="Layer_1" xmlns="http://www.w3.org/2000/svg" xmlns:xlink="http://www.w3.org/1999/xlink" x="0px" y="0px"
	 viewBox="0 0 1000 159" style="enable-background:new 0 0 1000 159;" xml:space="preserve">
<style type="text/css">
	.st0{fill:none;}
	.st1{fill-rule:evenodd;clip-rule:evenodd;fill:#FFFFFF;}
</style>
<g id="BoundingBox">
	<polygon class="st0" points="0,159 1000,159 1000,0 0,0 0,0 	"/>
</g>
<g id="SIEMENS">
	<g>
		<path class="st1" d="M3.1,152.5v-30.1c17.1,5.4,32.3,8.1,45.4,8.1c18.2,0,27.3-4.8,27.3-14.4c0-3.6-1.3-6.6-4-9
			c-2.7-2.6-9.7-6.2-20.8-10.8c-20-8.2-33.1-15.3-39.2-21.1C3.9,67.6,0,57.9,0,46.2c0-15.1,5.7-26.5,17.2-34.4
			C28.6,4,43.3,0.1,61.6,0.1c10,0,24.6,1.8,43.6,5.5v28.9c-14.1-5.6-27.3-8.5-39.4-8.5c-17.1,0-25.6,4.7-25.6,14.1
			c0,3.5,1.7,6.4,5.2,8.6c2.9,1.8,10.8,5.6,23.7,11.4c18.6,8.3,31,15.4,37.1,21.5c7.3,7.2,11,16.6,11,28.1
			c0,16.5-7.2,29.1-21.5,37.8c-11.6,7-26.7,10.5-45.2,10.5C34.7,158.1,18.9,156.2,3.1,152.5L3.1,152.5z"/>
		<polygon class="st1" points="141.1,2.7 141.1,2.7 183.6,2.7 183.6,155 141.1,155 		"/>
		<polygon class="st1" points="222.6,155 222.6,2.7 331.7,2.7 331.7,30.2 263.6,30.2 263.6,64.6 322.9,64.6 322.9,89.8 263.6,89.8 
			263.6,125.9 333.5,125.9 333.5,155 		"/>
		<polygon class="st1" points="361.2,155 361.2,2.7 416.4,2.7 454.7,100 494,2.7 546.4,2.7 546.4,155 506.1,155 506.1,47.2 
			461.4,156.5 435,156.5 391.2,47.2 391.2,155 		"/>
		<polygon class="st1" points="585.4,155 585.4,2.7 694.5,2.7 694.5,30.2 626.4,30.2 626.4,64.6 685.7,64.6 685.7,89.8 626.4,89.8 
			626.4,125.9 696.3,125.9 696.3,155 		"/>
		<polygon class="st1" points="724.3,155 724.3,2.7 773.6,2.7 825.9,104.7 825.9,2.7 855.8,2.7 855.8,155 807.9,155 754.2,51.7 
			754.2,155 		"/>
		<path class="st1" d="M886,152.5v-30.1c17,5.4,32.1,8.1,45.5,8.1c18.2,0,27.3-4.8,27.3-14.4c0-3.6-1.3-6.6-3.9-9
			c-2.7-2.6-9.7-6.2-20.9-10.8c-20-8.2-33.1-15.2-39.2-21.1c-7.9-7.6-11.8-17.3-11.8-29.1c0-15,5.7-26.4,17.2-34.3
			C911.5,4,926.3,0.1,944.5,0.1c10.2,0,23.5,1.6,39.8,4.9l3.8,0.7v28.9c-14.1-5.6-27.3-8.5-39.5-8.5c-17,0-25.5,4.7-25.5,14.1
			c0,3.5,1.7,6.4,5.1,8.6c2.7,1.7,10.7,5.5,23.8,11.4c18.4,8.3,30.8,15.4,37,21.5c7.3,7.2,11,16.6,11,28.1
			c0,16.5-7.1,29.1-21.4,37.8c-11.7,7-26.8,10.5-45.3,10.5C917.6,158.1,901.9,156.2,886,152.5L886,152.5z"/>
	</g>
</g>
</svg>
